PathFileType	4	(X/Y/Z)	C:/Users/beibeiliu/ov580/test_trc/User2\sequence.1_training_dense_left.trc
DataRate	CameraRate	NumFrames	NumMarkers	Units	OrigDataRate	OrigDataStartFrame	OrigNumFrames
120	120	12	19	mm	120	212	338
Frame#	Time	ThumbCMC			ThumbMCP			ThumbIP			ThumbTip			IndexMCP			IndexPIP			IndexTip			MiddleMCP			MiddlePIP			MiddleTip			RingMCP			RingPIP			RingTip			PinkyMCP			PinkyPIP			PinkyTip			BackHand1			BackHand2			BackHand3	
		X0	Y0	Z0	X1	Y1	Z1	X2	Y2	Z2	X3	Y3	Z3	X4	Y4	Z4	X5	Y5	Z5	X6	Y6	Z6	X7	Y7	Z7	X8	Y8	Z8	X9	Y9	Z9	X10	Y10	Z10	X11	Y11	Z11	X12	Y12	Z12	X13	Y13	Z13	X14	Y14	Z14	X15	Y15	Z15	X16	Y16	Z16	X17	Y17	Z17	X18	Y18	Z18	
211	1.75833	-141.137	65.356	96.9198	-130.746	68.1657	67.6961	-119.927	71.8689	34.5651	-109.605	72.8677	16.4906	-168.679	19.3666	30.5527	-171.427	5.72659	8.62833	-175.291	-12.2156	-15.9913	-183.561	-8.24838	45.0134	-185.391	-26.2092	20.315	-187.436	-52.9292	-5.35037	-187.3	-26.8995	62.0802	-189.961	-44.412	41.9597	-188.819	-65.3899	19.3273	-183.96	-34.3971	89.5756	-187.96	-53.9214	75.6965	-194.317	-71.2194	58.1289	-185.326	10.1391	106.941	-185.715	28.1193	132.562	-174.719	49.3916	96.4221	
212	1.76667	-147.049	70.6342	93.0063	-136.088	77.8851	68.64	-126.379	75.1708	34.0104	-115.165	77.7066	15.2626	-164.117	14.5554	30.5165	-164.28	2.85482	7.16177	-163.234	-13.7123	-16.7218	-173.17	-9.23847	42.3296	-173.416	-35.6636	19.7355	-169.696	-55.8195	-6.51787	-175.086	-29.3704	61.7262	-173.625	-50.406	39.5738	-170.214	-67.9622	21.4318	-168.742	-35.6078	90.3422	-172.363	-59.4498	74.2597	-174.453	-79.956	61.0439	-179.857	5.03425	107.543	-186.111	24.1404	133.499	-175.426	39.6502	97.7905	
213	1.775	-151.97	66.9234	98.1443	-141.281	79.4607	68.5214	-131.956	76.3752	36.1666	-121.763	83.0523	11.5047	-159.969	10.3708	29.9434	-156.875	1.23207	6.50484	-153.221	-16.4002	-12.4646	-165.507	-17.1587	39.3022	-161.645	-34.6784	19.0631	-155.096	-58.1772	-3.09588	-164.169	-33.1533	62.2897	-159.939	-51.8005	40.6355	-153.29	-67.3728	20.1676	-157.762	-39.6801	87.6146	-156.932	-61.5841	70.6524	-159.113	-82.826	57.0589	-175.355	-0.0478187	106.725	-182.67	17.8911	132.574	-175.829	40.5671	98.3153	
214	1.78333	-156.568	67.192	98.0798	-147.359	76.4616	68.1901	-136.533	78.6183	36.6882	-126.217	85.0157	17.6375	-155.896	12.0846	30.519	-149.932	-0.142097	8.48488	-142.472	-13.3292	-17.2041	-157.403	-14.5564	41.9105	-148.365	-32.7602	13.0468	-138.813	-52.3627	-8.89729	-152.753	-34.4641	62.4246	-146.133	-51.0029	43.2861	-134.867	-68.8061	19.3057	-147.349	-40.6356	87.9687	-142.078	-63.383	70.4624	-141.355	-83.2951	55.5101	-171.974	-2.26295	103.483	-180.711	14.9831	130.874	-178.48	33.8661	98.5041	
215	1.79167	-159.035	64.7757	97.971	-152.57	77.6758	71.0446	-141.739	82.5874	38.9636	-132.267	89.5405	20.7716	-151.358	13.9779	35.9074	-144.35	3.38583	10.1744	-134.306	-8.31856	-13.1423	-148.022	-16.0718	39.9666	-137.423	-27.7816	16.6353	-123.504	-46.8653	-10.852	-142.416	-33.0792	56.8721	-131.847	-49.2975	43.107	-120.305	-60.4779	19.0086	-137.01	-41.4107	86.9871	-129.113	-57.2019	71.2104	-125.725	-77.0045	53.832	-165.333	-4.61741	105.235	-181.235	13.0513	130.819	-177.592	30.9373	95.8181	
216	1.8	-164.546	65.2698	102.46	-157.221	76.7752	70.2896	-148.734	85.4767	41.1184	-139.504	91.2573	18.988	-148.739	15.8418	33.8218	-138.121	5.55029	6.22262	-128.429	-2.58956	-15.0007	-142.396	-8.75172	39.7228	-127.124	-23.683	12.3465	-108.742	-40.4836	-8.82749	-133.904	-27.5041	60.4126	-119.088	-44.0679	40.8526	-104.916	-54.4863	16.5475	-127.813	-35.4161	83.8855	-116.317	-50.9784	70.216	-110.243	-68.4861	51.5615	-162.775	-3.30251	102.113	-175.632	5.6793	130.225	-176.189	28.2573	97.6331	
217	1.80833	-169.09	65.2017	96.5301	-163.246	76.9568	69.9302	-154.174	86.1295	42.8201	-145.306	92.4744	20.8756	-145.745	18.361	31.1101	-135.6	11.0235	9.44877	-122.448	5.35179	-16.9349	-134.032	-9.09692	35.6789	-118.35	-17.5977	13.1092	-98.4185	-30.3351	-9.32804	-123.328	-25.0114	56.3318	-108.137	-37.4614	41.0117	-91.0398	-44.7251	13.717	-117.653	-29.4324	85.2735	-102.95	-46.4418	71.0252	-91.9092	-60.5861	49.5924	-158.096	-4.4947	101.253	-172.209	4.85495	130.577	-175.283	25.3298	97.2612	
218	1.81667	-171.626	62.4092	96.733	-168.795	76.7506	72.5208	-160.759	85.2747	40.4528	-153.685	96.4538	19.5749	-143.794	20.029	31.9129	-132.254	14.921	8.12091	-118.134	11.5679	-18.6932	-128.141	-6.37888	35.956	-110.013	-11.8821	14.4945	-87.3587	-19.3457	-11.3332	-116.673	-19.5566	57.691	-98.8867	-27.883	35.068	-80.7057	-33.4066	16.3557	-109.088	-24.9663	85.6904	-92.557	-35.9755	63.6873	-80.1792	-49.9509	46.3003	-152.476	-4.57482	101.138	-168.278	-0.108716	128.577	-176.051	22.3958	98.3476	
219	1.825	-174.44	59.9574	98.3048	-175.419	76.2327	72.4605	-167.797	84.9237	37.4551	-161.376	96.9735	22.0862	-143.77	22.4989	31.1845	-130.618	17.9379	6.55392	-113.669	17.9108	-22.0972	-124.784	-0.144408	36.7053	-104.494	-6.27373	13.3859	-81.5489	-9.48215	-11.014	-108.873	-14.9054	52.1766	-94.2434	-17.9093	34.4791	-72.7957	-23.2702	11.3712	-103.288	-17.0619	79.7219	-84.5478	-28.7067	65.5607	-71.6259	-36.4336	45.4647	-145.659	-3.88952	100.173	-165.632	-0.489025	126.18	-171.85	19.8936	95.6721	
220	1.83333	-178.882	58.49	98.6915	-180.269	73.2532	72.744	-177.108	86.584	40.9851	-169.967	95.5948	20.3437	-141.687	23.8659	30.2255	-129.199	23.6747	2.47514	-116.411	24.527	-20.4966	-123.982	5.76697	35.0731	-103.232	3.1435	8.35764	-78.7175	2.9742	-16.5283	-104.779	-10.457	50.4547	-87.0772	-13.3919	34.0458	-68.6953	-12.4455	11.1611	-94.406	-15.6071	77.0569	-79.0453	-20.3195	62.3446	-63.4967	-26.7454	40.3274	-138.914	-4.92058	99.2842	-159.276	0.705075	123.753	-171.344	19.6126	93.6295	
221	1.84167	-182.482	55.0744	99.4895	-185.23	70.0127	71.8024	-182.012	82.5747	39.3285	-179.927	94.9252	20.5598	-141.364	23.6895	31.0064	-130.495	24.9729	4.94335	-115.655	27.9277	-21.4723	-122.18	7.19112	32.5319	-98.7305	6.34592	8.04019	-75.4409	9.92946	-17.3798	-104.029	-4.34306	49.495	-83.5305	-6.47755	30.9348	-62.5027	-5.13338	7.7195	-92.2907	-7.99118	73.7187	-73.0847	-13.1684	59.9045	-55.9694	-20.1361	41.114	-136.555	-2.61646	97.065	-156.061	-4.49957	129.838	-170.674	17.2225	92.8808	
222	1.85	-182.05	49.7503	100.668	-188.013	64.8318	72.5327	-188.135	77.0895	40.1218	-187.239	90.1403	19.3195	-144.989	23.8317	31.3263	-134.621	26.7602	4.83704	-121.092	30.3361	-20.6677	-121.832	8.26101	34.606	-99.7365	11.3876	5.05194	-76.0136	16.13	-18.9165	-101.609	-1.43027	47.0951	-82.4679	-1.83191	29.669	-62.0269	1.80551	7.72881	-90.45	-2.22534	76.987	-67.6111	-7.27353	55.9126	-51.8235	-12.2868	37.0409	-131.69	-4.39956	98.3155	-150.9	-3.46407	127.636	-166.747	12.7084	99.2726	
